<?xml version="1.0" standalone="no"?>
<!DOCTYPE svg PUBLIC "-//W3C//DTD SVG 20010904//EN"
 "http://www.w3.org/TR/2001/REC-SVG-20010904/DTD/svg10.dtd">
<svg version="1.0" xmlns="http://www.w3.org/2000/svg"
 width="700.000000pt" height="700.000000pt" viewBox="0 0 700.000000 700.000000"
 preserveAspectRatio="xMidYMid meet">
<metadata>
Created by potrace 1.14, written by Peter Selinger 2001-2017
</metadata>
<g transform="translate(0.000000,700.000000) scale(0.100000,-0.100000)"
fill="#000000" stroke="none">
<path d="M4200 6991 c-49 -19 -68 -52 -86 -146 -2 -11 -6 -31 -9 -45 -7 -32
-62 -323 -70 -370 -3 -19 -10 -53 -15 -75 -5 -22 -11 -58 -15 -80 -13 -91 -30
-148 -45 -151 -207 -37 -418 -75 -430 -79 -8 -2 -35 -7 -60 -10 -94 -13 -247
-47 -285 -64 -50 -22 -66 -41 -70 -85 -4 -40 28 -91 293 -474 88 -127 163
-236 166 -241 5 -8 -10 -31 -269 -406 -158 -229 -181 -266 -189 -307 -5 -30
17 -79 44 -95 29 -19 164 -46 650 -134 63 -11 127 -25 142 -31 29 -11 25 0 64
-200 12 -62 21 -88 33 -91 9 -3 -648 -6 -1459 -7 -811 -1 -1488 -4 -1505 -6
-213 -31 -410 -176 -497 -364 -34 -74 -44 -107 -68 -230 -24 -122 -20 -101
-71 -350 -22 -107 -42 -206 -44 -220 -3 -14 -14 -68 -25 -120 -11 -52 -23
-108 -26 -125 -3 -16 -25 -129 -50 -250 -24 -121 -47 -231 -49 -245 -3 -14
-25 -124 -50 -245 -53 -257 -54 -259 -61 -305 -3 -19 -9 -51 -14 -70 -5 -19
-12 -51 -15 -70 -3 -19 -10 -53 -15 -75 -5 -22 -12 -56 -15 -75 -3 -19 -11
-55 -16 -80 -6 -25 -12 -54 -15 -65 -10 -53 -24 -123 -28 -145 -3 -14 -9 -47
-15 -75 -14 -69 -6 -229 14 -295 62 -204 229 -372 434 -438 l86 -27 2655 0
2655 0 85 27 c283 90 465 338 461 628 0 30 -3 65 -5 76 -2 12 -7 39 -10 60 -4
22 -8 46 -11 54 -2 8 -6 26 -9 40 -3 14 -10 50 -16 80 -6 30 -13 71 -16 90 -3
19 -8 38 -10 41 -2 3 -6 21 -9 40 -3 19 -23 120 -45 224 -73 354 -112 550
-115 570 -2 11 -8 40 -14 65 -5 25 -13 61 -16 80 -3 19 -15 78 -26 130 -11 52
-22 111 -25 130 -3 19 -8 38 -10 41 -2 3 -6 21 -9 40 -3 19 -17 90 -31 159
-14 69 -28 136 -30 150 -3 14 -21 102 -40 195 -19 94 -37 186 -40 205 -3 19
-8 38 -10 41 -2 3 -6 21 -9 40 -32 191 -72 311 -124 374 -15 18 -15 19 2 6 21
-17 26 -13 33 25 3 16 9 47 14 69 5 22 12 63 16 90 3 28 8 53 10 56 2 3 6 21
9 40 8 51 24 141 30 169 5 23 12 66 21 114 2 10 5 20 6 21 2 2 55 12 118 24
63 11 129 23 145 26 56 11 200 37 225 41 159 27 297 61 323 78 38 26 61 69 53
100 -6 24 -63 111 -299 454 -147 215 -159 235 -148 258 12 28 148 231 302 454
115 165 149 230 143 269 -11 59 -59 82 -249 117 -49 9 -99 18 -110 20 -11 2
-58 11 -105 19 -47 9 -121 22 -165 30 -44 8 -93 17 -110 20 -16 3 -51 10 -77
16 -46 11 -47 11 -57 62 -20 101 -82 433 -87 467 -16 108 -47 240 -64 276 -24
46 -64 73 -100 67 -13 -2 -56 -24 -95 -49 -38 -24 -79 -50 -90 -57 -10 -6 -24
-16 -31 -22 -6 -5 -52 -37 -100 -70 -404 -275 -387 -264 -408 -253 -12 6 -57
37 -101 68 -44 31 -175 123 -292 203 -238 164 -294 194 -333 178z m820 -915
c376 -28 737 -326 825 -681 17 -69 24 -307 11 -380 -3 -16 -8 -45 -11 -63 -7
-40 -45 -143 -75 -203 -51 -100 -151 -221 -256 -309 -47 -40 -181 -118 -243
-141 -124 -46 -188 -57 -341 -54 -156 2 -234 16 -349 61 -127 51 -265 160
-358 284 -42 57 -123 202 -123 221 0 6 -7 25 -14 42 -45 98 -75 344 -55 447 4
19 10 51 12 70 13 93 70 227 137 325 67 97 220 229 340 293 100 54 191 80 303
88 51 4 93 8 95 9 2 2 11 1 20 -1 9 -1 46 -5 82 -8z m-917 -2173 c-7 -2 -19
-2 -25 0 -7 3 -2 5 12 5 14 0 19 -2 13 -5z m64 1 c-3 -3 -12 -4 -19 -1 -8 3
-5 6 6 6 11 1 17 -2 13 -5z m40 0 c-3 -3 -12 -4 -19 -1 -8 3 -5 6 6 6 11 1 17
-2 13 -5z m76 -1 c-7 -2 -19 -2 -25 0 -7 3 -2 5 12 5 14 0 19 -2 13 -5z m44 1
c-3 -3 -12 -4 -19 -1 -8 3 -5 6 6 6 11 1 17 -2 13 -5z m40 0 c-3 -3 -12 -4
-19 -1 -8 3 -5 6 6 6 11 1 17 -2 13 -5z"/>
<path d="M4850 5833 c-120 -13 -290 -98 -399 -198 -83 -76 -165 -223 -180
-320 -7 -50 -7 -228 1 -276 25 -163 148 -347 296 -446 192 -127 426 -155 617
-73 197 84 373 293 429 510 22 88 16 270 -13 350 -47 130 -172 291 -285 365
-93 62 -183 88 -316 90 -63 1 -131 0 -150 -2z"/>
</g>
</svg>
